<svg xmlns="http://www.w3.org/2000/svg"  viewBox="0 0 64 64" width="64px" height="64px"><path fill="#97e0bb" d="M31 3A28 28 0 1 0 31 59A28 28 0 1 0 31 3Z" transform="rotate(-87 30.997 30.997)"/><path fill="#72caaf" d="M31,53q-.59,0-1.18,0A22,22,0,0,1,31,9q.59,0,1.18,0A22,22,0,0,1,31,53Z"/><path fill="#faefde" d="M46.18,34.37a2,2,0,0,1-2.71.65c-6.79-4.18-17.15-5.38-25.17-2.94a2,2,0,1,1-1.14-3.77c9.18-2.79,20.59-1.44,28.38,3.36a2,2,0,0,1,.64,2.7m.27-7.16c-8.15-4.83-21.58-5.28-29.35-2.92a2.36,2.36,0,1,1-1.38-4.52c8.92-2.71,23.76-2.19,33.14,3.38a2.36,2.36,0,1,1-2.4,4.06"/><path fill="#8d6c9f" d="M31.93 44.27a1 1 0 0 0-1.18.78l-.4 2a1 1 0 0 0 .78 1.18l.12 0a1 1 0 0 0 1.06-.8l.4-2A1 1 0 0 0 31.93 44.27zM26.07 43.85a1 1 0 0 0-.94 1.06l.12 2a1 1 0 0 0 .91.94h.14a1 1 0 0 0 .94-1.06l-.12-2A1 1 0 0 0 26.07 43.85zM21.63 45.2a1 1 0 0 0-1.9.63l.63 1.9a1 1 0 1 0 1.9-.63zM37.48 46.19a1 1 0 0 0-1.34.45l-.89 1.79a1 1 0 0 0 1.79.9l.89-1.79A1 1 0 0 0 37.48 46.19zM39.37 11.73a20.9 20.9 0 0 1 2 1 1 1 0 0 0 1-1.74A22.81 22.81 0 0 0 40.17 9.9a1 1 0 1 0-.8 1.83zM25.32 10.74a1 1 0 0 0 .26 0 21.16 21.16 0 0 1 9.84-.24 1 1 0 0 0 .42-2 23.16 23.16 0 0 0-10.77.26 1 1 0 0 0 .26 2z"/><path fill="#8d6c9f" d="M32.52,2a29,29,0,1,0-3,57.92q.77,0,1.54,0a29,29,0,0,0,1.5-58ZM58,32.41A27,27,0,1,1,32.41,4,27,27,0,0,1,58,32.41Z"/><path fill="#8d6c9f" d="M49.35,23.29c-9.61-5.71-24.8-6.25-33.94-3.48a3.36,3.36,0,0,0,2,6.43c7.56-2.3,20.63-1.88,28.55,2.82a3.34,3.34,0,0,0,1.71.47,3.38,3.38,0,0,0,.85-.11,3.3,3.3,0,0,0,2-1.53A3.37,3.37,0,0,0,49.35,23.29Zm-.54,3.59a1.31,1.31,0,0,1-.81.61,1.35,1.35,0,0,1-1-.15h0c-5.21-3.09-12.5-4.44-19.19-4.44a38.91,38.91,0,0,0-11,1.42,1.36,1.36,0,1,1-.8-2.61c8.72-2.65,23.2-2.14,32.34,3.29A1.37,1.37,0,0,1,48.81,26.88Z"/><path fill="#8d6c9f" d="M46.06,31.82c-8-4.94-19.76-6.33-29.19-3.47a2.93,2.93,0,0,0-1.76,1.44,3,3,0,0,0-.23,2.26,3,3,0,0,0,3.7,2c7.79-2.37,17.8-1.2,24.37,2.84a3,3,0,0,0,1.54.43A3,3,0,0,0,47,35.9a2.94,2.94,0,0,0,.36-2.25A2.91,2.91,0,0,0,46.06,31.82Zm-.73,3a1,1,0,0,1-1.33.33A32.91,32.91,0,0,0,27.2,30.83,31.89,31.89,0,0,0,18,32.13a1,1,0,0,1-.73-.07,1,1,0,0,1-.47-.57,1,1,0,0,1,.65-1.21c8.92-2.71,20-1.4,27.58,3.26a.93.93,0,0,1,.42.58A1,1,0,0,1,45.33,34.85Z"/><path fill="#faefde" d="M38.87,42.81a33.1,33.1,0,0,0-18.06-1.92,2,2,0,0,1-2.29-1.47v0a1.92,1.92,0,0,1,1.57-2.31c6.69-1.15,14.29-.85,20.51,2.34a1.89,1.89,0,0,1,.85,2.49h0A2,2,0,0,1,38.87,42.81Z"/><path fill="#8d6c9f" d="M39.72,44a3,3,0,0,1-1.24-.26h0A28.26,28.26,0,0,0,21,41.88a2.87,2.87,0,0,1-3.41-2.23A2.93,2.93,0,0,1,18,37.37a3,3,0,0,1,2-1.29c8-1.63,15.21-.77,21.11,2.44a2.91,2.91,0,0,1,1.29,3.83A2.88,2.88,0,0,1,39.72,44Zm-.47-2.1a1,1,0,0,0,1.32-.42.9.9,0,0,0-.42-1.16c-5-2.92-12.12-3.85-19.92-2.25a1,1,0,0,0-.66.43.87.87,0,0,0-.12.67,1,1,0,0,0,1.18.75,29.84,29.84,0,0,1,18.61,2Z"/></svg>